# xmcd CD database file
#
# Track frame offsets:
#       150
#       14823
#       30706
#       44975
#       59086
#       71889
#       81633
#       95336
#       108105
#       121785
#       131280
#       146917
#       155841
#       168589
#       224253
#       281353
#
# Disc length: 4580 seconds
#
# Revision: 3
# Processed by: cddbd v1.5.2PL0 Copyright (c) Steve Scherf et al.
# Submitted via: CDDBEditor PBVER-PBREV
#
DISCID=fc11e210
DTITLE=Charles Trénet - The Complete Charles Trénet (1952-1953): En Avril à Paris #1
DYEAR=2010
DGENRE=Chanson
TTITLE0=Carioca e sua Orquestra - Canto Safira - O mar (La mer)
TTITLE1=Charles Trénet - O Tropeido
TTITLE2=Maris Dumont - Jean Faustin - En ce temps-là
TTITLE3=Charles Trénet - Jo Boyer - En ce temps-là
TTITLE4=Charles Trénet - Jo Boyer - Valse des amours passées
TTITLE5=Charles Trénet - Jo Boyer - En Seine et Oise
TTITLE6=Charles Trénet - Jo Boyer - Pavane des patronages
TTITLE7=Charles Trénet - Jo Boyer - Le Coeur de Paris
TTITLE8=Charles Trénet - Jo Boyer - Simple et Tendre
TTITLE9=Charles Trénet - Jo Boyer - La jolie Sardane
TTITLE10=Charles Trénet - Jo Boyer - Je marche au bord de l'eau
TTITLE11=Charles Trénet - Jo Boyer - Commentaire sur Printemps à Rio
TTITLE12=Charles Trénet - Jo Boyer - Printemps à Rio
TTITLE13=Charles Trénet - La joie de vivre I - De la fenêtre d'en haut - La jolie Sardane
TTITLE14=Charles Trénet - La joie de vivre II - Y a d'la joie ! - Le tronc de cet arbre - J'ai ta main
TTITLE15=Charles Trénet - La joie de vivre III - Couchés dans le foin - Le jardinier qui boîte - Rendez-vous sous la pluie - La mer
EXTD=
EXTT0=
EXTT1=
EXTT2=
EXTT3=
EXTT4=
EXTT5=
EXTT6=
EXTT7=
EXTT8=
EXTT9=
EXTT10=
EXTT11=
EXTT12=
EXTT13=
EXTT14=
EXTT15=
PLAYORDER=
